# xmcd CD database file
#
# Track frame offsets:
#	150
#	15176
#	33168
#	49026
#	67903
#	86328
#	105317
#	124298
#	140060
#	162881
#
# Disc length: 2374 seconds
#
# Revision: 1
# Processed by: cddbd v1.5.1PL0 Copyright (c) Steve Scherf et al.
# Submitted via: CDex 1.51
#
DISCID=7109440a
DTITLE=Sojiro - Heart Obtained  Vol 10
DYEAR=1991
DGENRE=New Age
TTITLE0=Foreword Chapter
TTITLE1=Tree Leak Day
TTITLE2=(Japanise Title)
TTITLE3=Spring Thought
TTITLE4=Spring
TTITLE5=Summer Grass
TTITLE6=Irie's Side
TTITLE7=Clouds
TTITLE8=Evening Autumn
TTITLE9=Chapter
EXTD=YEAR: 1991
EXTT0=
EXTT1=
EXTT2=
EXTT3=
EXTT4=
EXTT5=
EXTT6=
EXTT7=
EXTT8=
EXTT9=
PLAYORDER=
